<svg width="24" height="25" viewBox="0 0 24 25" fill="none" xmlns="http://www.w3.org/2000/svg">
<path d="M18.5 18.8252L21 21.3252M4 6.3252H20M4 12.3252H8M4 18.3252H8M11 15.3252C11 16.3861 11.4214 17.4035 12.1716 18.1536C12.9217 18.9038 13.9391 19.3252 15 19.3252C16.0609 19.3252 17.0783 18.9038 17.8284 18.1536C18.5786 17.4035 19 16.3861 19 15.3252C19 14.2643 18.5786 13.2469 17.8284 12.4968C17.0783 11.7466 16.0609 11.3252 15 11.3252C13.9391 11.3252 12.9217 11.7466 12.1716 12.4968C11.4214 13.2469 11 14.2643 11 15.3252Z" stroke="#354052" stroke-width="2" stroke-linecap="round" stroke-linejoin="round"/>
</svg>
