<svg width="24" height="24" viewBox="0 0 24 24" fill="none" xmlns="http://www.w3.org/2000/svg">
<path d="M17.4509 2.34418C17.6249 2.1442 17.8711 2.02144 18.1354 2.00288C18.3998 1.98431 18.6608 2.07146 18.8609 2.24518C20.1542 3.36786 21.1933 4.75331 21.9089 6.30918C22.0198 6.55026 22.0303 6.82551 21.9383 7.07437C21.8462 7.32323 21.659 7.52532 21.4179 7.63618C21.1769 7.74704 20.9016 7.75759 20.6527 7.66551C20.4039 7.57343 20.2018 7.38626 20.0909 7.14518C19.4947 5.84756 18.6288 4.69189 17.5509 3.75518C17.3508 3.58139 17.2279 3.33527 17.2091 3.07088C17.1904 2.80649 17.2773 2.54447 17.4509 2.34418Z" fill="#77db30"/>
<path d="M5.13593 2.24518C5.33617 2.0712 5.59732 1.98389 5.86193 2.00245C6.12655 2.02102 6.37295 2.14394 6.54693 2.34418C6.72091 2.54442 6.80822 2.80557 6.78966 3.07019C6.77109 3.3348 6.64817 3.5812 6.44793 3.75518C5.37003 4.69189 4.50413 5.84756 3.90793 7.14518C3.85464 7.26685 3.77764 7.37669 3.68143 7.46827C3.58522 7.55986 3.47173 7.63136 3.34758 7.6786C3.22344 7.72584 3.09112 7.74787 2.95837 7.74341C2.82561 7.73895 2.69507 7.70809 2.57438 7.65262C2.45368 7.59716 2.34524 7.5182 2.2554 7.42036C2.16555 7.32253 2.0961 7.20777 2.05109 7.0828C2.00609 6.95782 1.98643 6.82514 1.99327 6.69248C2.00011 6.55983 2.03331 6.42986 2.09093 6.31018C2.8056 4.75423 3.84365 3.36846 5.13593 2.24518Z" fill="#77db30"/>
<path d="M14.235 19.0002C15.1 19.0002 15.557 20.0242 14.98 20.6682C14.6051 21.0876 14.1459 21.4231 13.6323 21.6527C13.1188 21.8822 12.5625 22.0007 12 22.0002C11.4374 22.0007 10.8812 21.8822 10.3676 21.6527C9.85404 21.4231 9.3948 21.0876 9.01997 20.6682C8.46797 20.0522 8.86197 19.0892 9.65397 19.0072L9.76397 19.0012L14.235 19.0002Z" fill="#77db30"/>
<path d="M11.9999 2.00018C13.3579 2.00018 14.5059 2.90318 14.8749 4.14118L14.9209 4.31218L14.9289 4.35518C16.0313 4.97708 16.9707 5.85129 17.6702 6.90618C18.3696 7.96108 18.8092 9.16666 18.9529 10.4242L18.9809 10.7112L18.9999 11.0002V13.9312L19.0209 14.0672C19.1579 14.804 19.5656 15.4629 20.1639 15.9142L20.3309 16.0312L20.4929 16.1302C21.3529 16.6172 21.0529 17.8962 20.1159 17.9942L19.9999 18.0002H3.99995C2.97195 18.0002 2.61295 16.6362 3.50695 16.1302C3.88798 15.9146 4.21719 15.6181 4.47149 15.2618C4.72578 14.9054 4.89899 14.4976 4.97895 14.0672L4.99995 13.9242L5.00095 10.9542C5.06192 9.64806 5.44211 8.37679 6.10823 7.25165C6.77436 6.12651 7.70611 5.18179 8.82195 4.50018L9.06995 4.35418L9.07995 4.31118C9.2214 3.71321 9.54289 3.17302 10.001 2.76352C10.4592 2.35402 11.0319 2.09492 11.6419 2.02118L11.8239 2.00418L11.9999 2.00018Z" fill="#77db30"/>
<path d="M17.4509 2.34418C17.6249 2.1442 17.8711 2.02144 18.1354 2.00288C18.3998 1.98431 18.6608 2.07146 18.8609 2.24518C20.1542 3.36786 21.1933 4.75331 21.9089 6.30918C22.0198 6.55026 22.0303 6.82551 21.9383 7.07437C21.8462 7.32323 21.659 7.52532 21.4179 7.63618C21.1769 7.74704 20.9016 7.75759 20.6527 7.66551C20.4039 7.57343 20.2018 7.38626 20.0909 7.14518C19.4947 5.84756 18.6288 4.69189 17.5509 3.75518C17.3508 3.58139 17.2279 3.33527 17.2091 3.07088C17.1904 2.80649 17.2773 2.54447 17.4509 2.34418Z" stroke="#77db30"/>
<path d="M5.13593 2.24518C5.33617 2.0712 5.59732 1.98389 5.86193 2.00245C6.12655 2.02102 6.37295 2.14394 6.54693 2.34418C6.72091 2.54442 6.80822 2.80557 6.78966 3.07019C6.77109 3.3348 6.64817 3.5812 6.44793 3.75518C5.37003 4.69189 4.50413 5.84756 3.90793 7.14518C3.85464 7.26685 3.77764 7.37669 3.68143 7.46827C3.58522 7.55986 3.47173 7.63136 3.34758 7.6786C3.22344 7.72584 3.09112 7.74787 2.95837 7.74341C2.82561 7.73895 2.69507 7.70809 2.57438 7.65262C2.45368 7.59716 2.34524 7.5182 2.2554 7.42036C2.16555 7.32253 2.0961 7.20777 2.05109 7.0828C2.00609 6.95782 1.98643 6.82514 1.99327 6.69248C2.00011 6.55983 2.03331 6.42986 2.09093 6.31018C2.8056 4.75423 3.84365 3.36846 5.13593 2.24518Z" stroke="#77db30"/>
<path d="M14.235 19.0002C15.1 19.0002 15.557 20.0242 14.98 20.6682C14.6051 21.0876 14.1459 21.4231 13.6323 21.6527C13.1188 21.8822 12.5625 22.0007 12 22.0002C11.4374 22.0007 10.8812 21.8822 10.3676 21.6527C9.85404 21.4231 9.3948 21.0876 9.01997 20.6682C8.46797 20.0522 8.86197 19.0892 9.65397 19.0072L9.76397 19.0012L14.235 19.0002Z" stroke="#77db30"/>
<path d="M11.9999 2.00018C13.3579 2.00018 14.5059 2.90318 14.8749 4.14118L14.9209 4.31218L14.9289 4.35518C16.0313 4.97708 16.9707 5.85129 17.6702 6.90618C18.3696 7.96108 18.8092 9.16666 18.9529 10.4242L18.9809 10.7112L18.9999 11.0002V13.9312L19.0209 14.0672C19.1579 14.804 19.5656 15.4629 20.1639 15.9142L20.3309 16.0312L20.4929 16.1302C21.3529 16.6172 21.0529 17.8962 20.1159 17.9942L19.9999 18.0002H3.99995C2.97195 18.0002 2.61295 16.6362 3.50695 16.1302C3.88798 15.9146 4.21719 15.6181 4.47149 15.2618C4.72578 14.9054 4.89899 14.4976 4.97895 14.0672L4.99995 13.9242L5.00095 10.9542C5.06192 9.64806 5.44211 8.37679 6.10823 7.25165C6.77436 6.12651 7.70611 5.18179 8.82195 4.50018L9.06995 4.35418L9.07995 4.31118C9.2214 3.71321 9.54289 3.17302 10.001 2.76352C10.4592 2.35402 11.0319 2.09492 11.6419 2.02118L11.8239 2.00418L11.9999 2.00018Z" stroke="#77db30"/>
</svg>
