<svg width="24" height="25" viewBox="0 0 24 25" fill="none" xmlns="http://www.w3.org/2000/svg">
<path d="M14 3.3252V7.3252C14 7.59041 14.1054 7.84477 14.2929 8.0323C14.4804 8.21984 14.7348 8.3252 15 8.3252H19M14 3.3252H7C6.46957 3.3252 5.96086 3.53591 5.58579 3.91098C5.21071 4.28605 5 4.79476 5 5.3252V19.3252C5 19.8556 5.21071 20.3643 5.58579 20.7394C5.96086 21.1145 6.46957 21.3252 7 21.3252H17C17.5304 21.3252 18.0391 21.1145 18.4142 20.7394C18.7893 20.3643 19 19.8556 19 19.3252V8.3252M14 3.3252L19 8.3252M10 18.3252L15 13.3252C15.2652 13.06 15.4142 12.7003 15.4142 12.3252C15.4142 11.9501 15.2652 11.5904 15 11.3252C14.7348 11.06 14.3751 10.911 14 10.911C13.6249 10.911 13.2652 11.06 13 11.3252L8 16.3252V18.3252H10Z" stroke="#354052" stroke-width="2" stroke-linecap="round" stroke-linejoin="round"/>
</svg>
