<svg width="24" height="25" viewBox="0 0 24 25" fill="none" xmlns="http://www.w3.org/2000/svg">
<path d="M6.979 3.39921C7.86407 3.24841 8.77169 3.29815 9.63497 3.54478C10.4982 3.7914 11.2952 4.22862 11.967 4.82421L12.004 4.85721L12.038 4.82721C12.6792 4.2645 13.433 3.845 14.2492 3.59669C15.0653 3.34838 15.9251 3.27696 16.771 3.38721L17.017 3.42321C18.0833 3.60732 19.08 4.07636 19.9015 4.78068C20.723 5.48499 21.3387 6.39835 21.6835 7.42404C22.0282 8.44973 22.0892 9.54957 21.8599 10.6071C21.6306 11.6646 21.1196 12.6404 20.381 13.4312L20.201 13.6162L20.153 13.6572L12.703 21.0362C12.5311 21.2064 12.3033 21.3084 12.0619 21.3235C11.8205 21.3386 11.5818 21.2657 11.39 21.1182L11.296 21.0362L3.803 13.6142C3.00922 12.8419 2.4447 11.8649 2.17196 10.7915C1.89922 9.71806 1.92891 8.5901 2.25772 7.53252C2.58654 6.47494 3.20166 5.52901 4.03497 4.79948C4.86827 4.06995 5.88723 3.5853 6.979 3.39921Z" fill="#DC2626"/>
</svg>
