<svg width="14" height="14" viewBox="0 0 14 14" fill="none" xmlns="http://www.w3.org/2000/svg">
<path d="M2.13411 12.8008H11.4674C12.2038 12.8008 12.8008 12.2038 12.8008 11.4674V2.13411C12.8008 1.39773 12.2038 0.800781 11.4674 0.800781H2.13411C1.39773 0.800781 0.800781 1.39773 0.800781 2.13411V11.4674C0.800781 12.2038 1.39773 12.8008 2.13411 12.8008ZM2.13411 12.8008L9.46745 5.46745L12.8008 8.80078M5.46745 4.46745C5.46745 5.01973 5.01973 5.46745 4.46745 5.46745C3.91516 5.46745 3.46745 5.01973 3.46745 4.46745C3.46745 3.91516 3.91516 3.46745 4.46745 3.46745C5.01973 3.46745 5.46745 3.91516 5.46745 4.46745Z" stroke="#1E1E1E" stroke-width="1.6" stroke-linecap="round" stroke-linejoin="round"/>
</svg>
