<svg width="24" height="25" viewBox="0 0 24 25" fill="none" xmlns="http://www.w3.org/2000/svg">
<path d="M9 11.3254C9 12.121 9.31607 12.8841 9.87868 13.4467C10.4413 14.0093 11.2044 14.3254 12 14.3254C12.7956 14.3254 13.5587 14.0093 14.1213 13.4467C14.6839 12.8841 15 12.121 15 11.3254C15 10.5297 14.6839 9.76668 14.1213 9.20407C13.5587 8.64146 12.7956 8.32539 12 8.32539C11.2044 8.32539 10.4413 8.64146 9.87868 9.20407C9.31607 9.76668 9 10.5297 9 11.3254Z" stroke="#77db30" stroke-width="2" stroke-linecap="round" stroke-linejoin="round"/>
<path d="M17.657 16.9824L13.414 21.2254C13.039 21.6 12.5306 21.8105 12.0005 21.8105C11.4704 21.8105 10.962 21.6 10.587 21.2254L6.343 16.9824C5.22422 15.8636 4.46234 14.4381 4.15369 12.8863C3.84504 11.3344 4.00349 9.72591 4.60901 8.26412C5.21452 6.80234 6.2399 5.55293 7.55548 4.6739C8.87107 3.79486 10.4178 3.32568 12 3.32568C13.5822 3.32568 15.1289 3.79486 16.4445 4.6739C17.7601 5.55293 18.7855 6.80234 19.391 8.26412C19.9965 9.72591 20.155 11.3344 19.8463 12.8863C19.5377 14.4381 18.7758 15.8636 17.657 16.9824Z" stroke="#77db30" stroke-width="2" stroke-linecap="round" stroke-linejoin="round"/>
<path d="M9 11.3254C9 12.121 9.31607 12.8841 9.87868 13.4467C10.4413 14.0093 11.2044 14.3254 12 14.3254C12.7956 14.3254 13.5587 14.0093 14.1213 13.4467C14.6839 12.8841 15 12.121 15 11.3254C15 10.5297 14.6839 9.76668 14.1213 9.20407C13.5587 8.64146 12.7956 8.32539 12 8.32539C11.2044 8.32539 10.4413 8.64146 9.87868 9.20407C9.31607 9.76668 9 10.5297 9 11.3254Z" stroke="#77db30" stroke-width="2" stroke-linecap="round" stroke-linejoin="round"/>
<path d="M17.657 16.9824L13.414 21.2254C13.039 21.6 12.5306 21.8105 12.0005 21.8105C11.4704 21.8105 10.962 21.6 10.587 21.2254L6.343 16.9824C5.22422 15.8636 4.46234 14.4381 4.15369 12.8863C3.84504 11.3344 4.00349 9.72591 4.60901 8.26412C5.21452 6.80234 6.2399 5.55293 7.55548 4.6739C8.87107 3.79486 10.4178 3.32568 12 3.32568C13.5822 3.32568 15.1289 3.79486 16.4445 4.6739C17.7601 5.55293 18.7855 6.80234 19.391 8.26412C19.9965 9.72591 20.155 11.3344 19.8463 12.8863C19.5377 14.4381 18.7758 15.8636 17.657 16.9824Z" stroke="#77db30" stroke-width="2" stroke-linecap="round" stroke-linejoin="round"/>
</svg>
