<svg width="24" height="25" viewBox="0 0 24 25" fill="none" xmlns="http://www.w3.org/2000/svg">
<path d="M12 18.8252L9 17.3252M9 17.3252L3 20.3252V7.3252L9 4.3252M9 17.3252V4.3252M9 4.3252L15 7.3252M15 7.3252L21 4.3252V11.8252M15 7.3252V12.8252M19 18.3252V18.3352M21.121 20.4462C21.5407 20.0267 21.8265 19.4921 21.9423 18.9102C22.0581 18.3282 21.9988 17.7249 21.7717 17.1767C21.5447 16.6285 21.1602 16.1599 20.6668 15.8302C20.1734 15.5005 19.5934 15.3246 19 15.3246C18.4066 15.3246 17.8266 15.5005 17.3332 15.8302C16.8398 16.1599 16.4553 16.6285 16.2283 17.1767C16.0012 17.7249 15.9419 18.3282 16.0577 18.9102C16.1735 19.4921 16.4594 20.0267 16.879 20.4462C17.297 20.8652 18.004 21.4912 19 22.3252C20.051 21.4352 20.759 20.8092 21.121 20.4462Z" stroke="#354052" stroke-width="2" stroke-linecap="round" stroke-linejoin="round"/>
</svg>
